<?xml version="1.0"?>
<svg xmlns="http://www.w3.org/2000/svg" xmlns:xlink="http://www.w3.org/1999/xlink" xmlns:svgjs="http://svgjs.com/svgjs" version="1.1" width="512" height="512" x="0" y="0" viewBox="0 0 511.999 511.999" style="enable-background:new 0 0 512 512" xml:space="preserve" class=""><g>
<path xmlns="http://www.w3.org/2000/svg" style="" d="M196.887,286.746H45.024c-9.026,0-17.495,4-23.21,10.989c-5.715,6.975-7.971,16.045-6.213,24.91  l13.173,65.895c5.583,27.958,30.346,48.252,58.861,48.252h66.642c28.515,0,53.279-20.294,58.861-48.252l13.173-65.924  C230.002,304.062,215.805,286.746,196.887,286.746z" fill="#6f7d96" data-original="#6f7d96" class=""/>
<path xmlns="http://www.w3.org/2000/svg" style="" d="M1.313,313.355L52.262,94.571c7.108-28.466,38.269-42.363,63.858-29.584l26.551,13.275  c17.647,8.823,4.397,35.683-13.422,26.844l-26.551-13.275c-8.67-4.303-18.95,0.514-21.277,9.788l-50.89,218.535  C25.992,339.675-3.218,332.71,1.313,313.355z" fill="#03f414" data-original="#495a79" class=""/>
<path xmlns="http://www.w3.org/2000/svg" style="" d="M481.463,320.154L430.514,101.37c-2.238-8.89-12.451-13.859-21.218-9.539l-26.551,13.275  c-17.914,8.833-30.997-18.057-13.422-26.844l26.551-13.275c25.757-12.925,56.839,1.491,63.799,29.335l51.007,219.033  C515.184,332.584,486.014,339.724,481.463,320.154z" fill="#03f414" data-original="#42516d" class=""/>
<path xmlns="http://www.w3.org/2000/svg" style="" d="M154.276,451.798H87.634c-35.636,0-66.584-25.364-73.573-60.312L0.889,325.591  c-2.667-13.275,0.732-26.903,9.319-37.366c8.587-10.477,21.277-16.484,34.816-16.484h151.863c28.38,0,49.725,26.026,44.135,53.85  l-13.173,65.895C220.86,426.433,189.912,451.798,154.276,451.798z M45.024,301.751c-4.513,0-8.748,2.008-11.606,5.495  c-2.858,3.487-3.985,8.03-3.106,12.455l13.173,65.895c4.19,20.969,22.756,36.193,44.15,36.193h66.642  c21.394,0,39.958-15.225,44.15-36.193L211.6,319.7c1.847-9.297-5.234-17.95-14.712-17.95H45.024z" fill="#03f414" data-original="#495a79" class=""/>
<path xmlns="http://www.w3.org/2000/svg" style="" d="M466.972,286.746H315.108c-18.903,0-33.116,17.282-29.423,35.9l13.173,65.895  c5.583,27.958,30.346,48.252,58.861,48.252h66.642c28.515,0,53.279-20.294,58.861-48.252l13.173-65.924  C500.087,304.062,485.889,286.746,466.972,286.746z" fill="#6f7d96" data-original="#66728b" class=""/>
<path xmlns="http://www.w3.org/2000/svg" style="" d="M424.36,451.798h-66.642c-35.636,0-66.584-25.364-73.573-60.312l-13.173-65.895  c-5.59-27.824,15.755-53.85,44.135-53.85h151.863c28.38,0,49.725,26.026,44.135,53.85l-13.173,65.895  C490.944,426.433,459.996,451.798,424.36,451.798z M315.108,301.751c-9.478,0-16.558,8.654-14.712,17.95l13.173,65.895  c4.19,20.969,22.756,36.193,44.15,36.193h66.642c21.394,0,39.958-15.225,44.15-36.193l13.173-65.895  c1.847-9.297-5.234-17.95-14.712-17.95H315.108z" fill="#03f414" data-original="#42516d" class=""/>
<path xmlns="http://www.w3.org/2000/svg" style="" d="M278.505,337.762c-6.901-4.201-14.705-6.002-22.507-6.002s-15.606,1.801-22.507,6.002  c-17.406,9.902-32.11-15.906-15.005-25.809c11.704-6.601,24.608-10.202,37.512-10.202c12.904,0,25.808,3.601,37.512,10.202  C310.615,321.856,295.91,347.964,278.505,337.762z" fill="#03f414" data-original="#495a79" class=""/>
<path xmlns="http://www.w3.org/2000/svg" style="" d="M278.505,337.762c-6.901-4.201-14.705-6.002-22.507-6.002v-30.009  c12.904,0,25.808,3.601,37.512,10.202C310.615,321.856,295.91,347.964,278.505,337.762z" fill="#03f414" data-original="#42516d" class=""/>
<g xmlns="http://www.w3.org/2000/svg">
</g>
<g xmlns="http://www.w3.org/2000/svg">
</g>
<g xmlns="http://www.w3.org/2000/svg">
</g>
<g xmlns="http://www.w3.org/2000/svg">
</g>
<g xmlns="http://www.w3.org/2000/svg">
</g>
<g xmlns="http://www.w3.org/2000/svg">
</g>
<g xmlns="http://www.w3.org/2000/svg">
</g>
<g xmlns="http://www.w3.org/2000/svg">
</g>
<g xmlns="http://www.w3.org/2000/svg">
</g>
<g xmlns="http://www.w3.org/2000/svg">
</g>
<g xmlns="http://www.w3.org/2000/svg">
</g>
<g xmlns="http://www.w3.org/2000/svg">
</g>
<g xmlns="http://www.w3.org/2000/svg">
</g>
<g xmlns="http://www.w3.org/2000/svg">
</g>
<g xmlns="http://www.w3.org/2000/svg">
</g>
</g></svg>
